<svg xmlns="http://www.w3.org/2000/svg" xmlns:xlink="http://www.w3.org/1999/xlink" viewBox="0 0 283.39 150.63"><defs><style>.cls-1{fill:url(#linear-gradient);}.cls-2{fill:#fff;}.cls-3{font-size:115px;fill:#1b1464;font-family:Akrobat-Bold, Akrobat;font-weight:700;}.cls-4{letter-spacing:-0.01em;}</style><linearGradient id="linear-gradient" y1="60.28" x2="101" y2="60.28" gradientUnits="userSpaceOnUse"><stop offset="0.41" stop-color="#f7931e"/><stop offset="0.56" stop-color="#f9a02b"/><stop offset="0.78" stop-color="#faac37"/><stop offset="1" stop-color="#fbb03b"/></linearGradient></defs><g id="Layer_2" data-name="Layer 2"><g id="Layer_1-2" data-name="Layer 1"><path class="cls-1" d="M90.15,110.92a120.36,120.36,0,0,1,10-78.82,8,8,0,0,0-8-11.48A112.88,112.88,0,0,1,78,21.2a21.72,21.72,0,0,0-42.23-6.6c-5.38-1.47-10.3-3-14.59-4.52A8,8,0,0,0,11,20C20.63,51.26,10.41,78.94,1,95.7A8,8,0,0,0,8.9,107.52c25.25-2.8,53.7,6,70.6,12.49A8,8,0,0,0,90.15,110.92ZM39.3,15.54a18.09,18.09,0,0,1,35.09,5.54A175.82,175.82,0,0,1,39.3,15.54Z"/><path class="cls-2" d="M33.72,88.58c.8,6.1,6.1,10.5,14.7,10.5,4.5,0,10.4-1.7,13.2-4.6l7.8,7.7c-5.2,5.4-13.7,8-21.2,8-17,0-27.1-10.5-27.1-26.3,0-15,10.2-25.8,26.2-25.8,16.5,0,26.8,10.2,24.9,30.5Zm26.8-10.1c-.8-6.4-5.8-9.6-12.8-9.6-6.6,0-12,3.2-13.8,9.6Z"/><text class="cls-3" transform="translate(91.7 120.15) scale(0.9 1)"><tspan class="cls-4">S</tspan><tspan x="52.79" y="0">hop</tspan></text></g></g></svg>